<svg width="512.001" height="512.001" xmlns="http://www.w3.org/2000/svg" xml:space="preserve" version="1.1">

 <g>
  <title>Layer 1</title>
  <rect id="svg_1" fill="#FFFFFF" height="337.694" width="404.088" y="98.316" x="15.557"/>
  <path id="svg_2" fill="#CCCCCC" d="m415.643,102.314l0,329.693l-396.086,0l0,-329.693l396.086,0m8.001,-8l-412.088,0l0,345.693l412.086,0l0,-345.693l0.002,0z"/>
  <rect id="svg_3" fill="#FFFFFF" height="264.176" width="344.314" y="141.938" x="45.446"/>
  <path id="svg_4" fill="#CCCCCC" d="m385.755,145.938l0,256.18l-336.31,0l0,-256.18l336.31,0m8,-8l-352.31,0l0,272.18l352.31,0l0,-272.18z"/>
  <path id="svg_5" d="m11.556,35.5l412.08801,0l0,79.423l-412.08801,0l0,-79.423z" opacity="undefined" fill="#2d527c"/>
  <g id="svg_6">
   <rect id="svg_7" fill="#1A1718" height="71.457" width="24" x="84.59"/>
   <rect id="svg_8" fill="#1A1718" height="71.457" width="24" x="326.61"/>
  </g>
  <path id="svg_9" fill="#2d527c" d="m359.018,229.164c-78.103,0.004 -141.415,63.323 -141.411,141.427s63.323,141.415 141.427,141.411c78.097,-0.004 141.406,-63.314 141.411,-141.411c0.004,-78.103 -63.308,-141.422 -141.411,-141.427c-0.005,0 -0.01,0 -0.016,0z"/>
  <g id="svg_10">
   <rect id="svg_11" fill="#FFFFFF" height="24" width="144.003" y="358.592" x="287.02"/>
   <rect id="svg_12" fill="#FFFFFF" height="144.003" width="24" y="298.587" x="347.015"/>
  </g>
  <g id="svg_13"/>
  <g id="svg_14"/>
  <g id="svg_15"/>
  <g id="svg_16"/>
  <g id="svg_17"/>
  <g id="svg_18"/>
  <g id="svg_19"/>
  <g id="svg_20"/>
  <g id="svg_21"/>
  <g id="svg_22"/>
  <g id="svg_23"/>
  <g id="svg_24"/>
  <g id="svg_25"/>
  <g id="svg_26"/>
  <g id="svg_27"/>
 </g>
</svg>