<svg width="16" height="16" xmlns="http://www.w3.org/2000/svg">

 <g>
  <title>Layer 1</title>
  <path id="svg_1" d="m4,4l5,0c0.55228,0 1,-0.44772 1,-1c0,-0.55228 -0.44772,-1 -1,-1l-5,0c-1.10457,0 -2,0.89543 -2,2l0,8c0,1.1046 0.89543,2 2,2l8,0c1.1046,0 2,-0.8954 2,-2l0,-2c0,-0.55229 -0.4477,-1 -1,-1c-0.5523,0 -1,0.44771 -1,1l0,2l-8,0l0,-8zm11.2071,-1.70711c-0.3905,-0.39052 -1.0237,-0.39052 -1.4142,0l-5.2929,5.2929l-0.79289,-0.7929c-0.39053,-0.39052 -1.02369,-0.39052 -1.41422,0c-0.39052,0.39053 -0.39052,1.02369 0,1.41422l1.5,1.5c0.18754,0.18753 0.44189,0.29289 0.70711,0.29289c0.26522,0 0.51957,-0.10536 0.70711,-0.29289l5.99999,-6c0.3905,-0.39053 0.3905,-1.02369 0,-1.41422z" fill-rule="evenodd" fill="#2d527c"/>
 </g>
</svg>